<svg width="23" height="23" viewBox="0 0 23 23" fill="none" xmlns="http://www.w3.org/2000/svg">
<path d="M8.63619 21.0458C9.16337 21.0458 9.59073 20.6184 9.59073 20.0913C9.59073 19.5641 9.16337 19.1367 8.63619 19.1367C8.10901 19.1367 7.68164 19.5641 7.68164 20.0913C7.68164 20.6184 8.10901 21.0458 8.63619 21.0458Z" stroke="black" stroke-width="2" stroke-linecap="round" stroke-linejoin="round"/>
<path d="M19.1362 21.0458C19.6634 21.0458 20.0907 20.6184 20.0907 20.0913C20.0907 19.5641 19.6634 19.1367 19.1362 19.1367C18.609 19.1367 18.1816 19.5641 18.1816 20.0913C18.1816 20.6184 18.609 21.0458 19.1362 21.0458Z" stroke="black" stroke-width="2" stroke-linecap="round" stroke-linejoin="round"/>
<path d="M1 1H4.81818L7.37636 13.7814C7.46365 14.2208 7.70273 14.6156 8.05175 14.8966C8.40077 15.1775 8.83748 15.3268 9.28545 15.3182H18.5636C19.0116 15.3268 19.4483 15.1775 19.7973 14.8966C20.1464 14.6156 20.3854 14.2208 20.4727 13.7814L22 5.77273H5.77273" stroke="black" stroke-width="2" stroke-linecap="round" stroke-linejoin="round"/>
</svg>
