<svg width="22" height="20" viewBox="0 0 22 20" fill="none" xmlns="http://www.w3.org/2000/svg">
<path d="M11 19.8012C10.2905 19.172 9.4886 18.5175 8.6405 17.8212H8.6295C5.64301 15.3792 2.25831 12.616 0.763412 9.30502C0.272812 8.25123 0.0121126 7.10503 1.26253e-05 5.94123C-0.00161725 5.15141 0.154575 4.36923 0.459419 3.64061C0.764262 2.91199 1.21161 2.25162 1.7752 1.69828C2.33879 1.14494 3.00725 0.709779 3.74134 0.418354C4.47543 0.12693 5.26035 -0.0148853 6.05001 0.00123517C7.3487 0.00328645 8.61942 0.378624 9.7108 1.08253C10.1904 1.3938 10.6243 1.77031 11 2.20123C11.3784 1.77223 11.8118 1.39603 12.2903 1.08253C13.3812 0.378485 14.6516 0.00312557 15.95 0.00123517C16.7397 -0.0148853 17.5246 0.12693 18.2587 0.418354C18.9927 0.709779 19.6612 1.14494 20.2248 1.69828C20.7884 2.25162 21.2357 2.91199 21.5406 3.64061C21.8454 4.36923 22.0016 5.15141 22 5.94123C21.9888 7.10592 21.7285 8.25474 21.2366 9.31052C19.7417 12.6215 16.3581 15.3836 13.3716 17.8212L13.3606 17.83C12.5114 18.5219 11.7106 19.1764 11.0011 19.81L11 19.8012ZM6.05001 2.20123C5.02537 2.18841 4.03709 2.58056 3.30001 3.29243C2.94851 3.6377 2.67 4.0501 2.48103 4.50513C2.29207 4.96016 2.1965 5.44853 2.20001 5.94123C2.21211 6.78823 2.40461 7.62423 2.76321 8.39203C3.46889 9.82059 4.42104 11.1135 5.57591 12.2112C6.666 13.3112 7.92 14.376 9.0046 15.2714C9.3049 15.5189 9.6107 15.7686 9.9165 16.0183L10.109 16.1756C10.4027 16.4154 10.7063 16.664 11 16.9082L11.0143 16.895L11.0209 16.8895H11.0275L11.0374 16.8818H11.0484L11.0682 16.8653L11.1133 16.829L11.121 16.8224L11.1331 16.8136H11.1397L11.1496 16.8048L11.88 16.2053L12.0714 16.048C12.3805 15.7961 12.6863 15.5464 12.9866 15.2989C14.0712 14.4035 15.3263 13.3398 16.4164 12.2343C17.5715 11.1372 18.5237 9.84461 19.2291 8.41623C19.5943 7.64183 19.7901 6.79703 19.8011 5.94123C19.8032 5.44994 19.7069 4.96321 19.5178 4.50978C19.3286 4.05635 19.0506 3.64541 18.7 3.30123C17.9643 2.58614 16.9759 2.19076 15.95 2.20123C15.3311 2.19597 14.718 2.32175 14.1512 2.57029C13.5843 2.81884 13.0765 3.18453 12.661 3.64333L11 5.55733L9.339 3.64333C8.92354 3.18453 8.4157 2.81884 7.84884 2.57029C7.28198 2.32175 6.66894 2.19597 6.05001 2.20123Z" fill="black"/>
</svg>
