<svg width="26" height="26" viewBox="0 0 26 26" fill="none" xmlns="http://www.w3.org/2000/svg">
<path d="M26 12.9864C26 12.6857 25.8533 12.4214 25.6301 12.2556L25.6349 12.2474L22.4912 10.4186L24.3007 7.2602L24.2947 7.25646C24.3518 7.1263 24.3777 6.98438 24.3703 6.84224C24.3628 6.7001 24.3223 6.56172 24.2518 6.43833C24.1809 6.31506 24.0821 6.21039 23.9634 6.13282C23.8448 6.05525 23.7097 6.00697 23.5691 5.9919V5.98306H19.9386V2.33513H19.9311C19.916 2.1936 19.868 2.05765 19.7911 1.9383C19.7141 1.81894 19.6103 1.71954 19.4881 1.64815C19.3655 1.57696 19.2279 1.536 19.0866 1.52862C18.9452 1.52124 18.8042 1.54764 18.6749 1.60568L18.6705 1.59786L15.4739 3.45767L13.7038 0.367953L13.6974 0.371691C13.6141 0.256762 13.5051 0.163223 13.3792 0.0986491C13.2533 0.0340748 13.1141 0.00027973 12.9729 0C12.6745 0 12.4118 0.147793 12.2476 0.37271L12.2395 0.367953L10.4401 3.50864L7.34163 1.7059L7.33792 1.71236C7.20875 1.65476 7.06793 1.62865 6.92687 1.63615C6.78581 1.64365 6.64849 1.68454 6.52605 1.75551C6.40363 1.82694 6.29968 1.92648 6.22264 2.04603C6.1456 2.16558 6.09765 2.30176 6.08268 2.44351H6.07358V6.07004H2.49565V6.07718C2.3552 6.0924 2.22029 6.14075 2.10185 6.21832C1.98341 6.29588 1.88476 6.40047 1.81391 6.52361C1.74346 6.64712 1.70289 6.78563 1.69551 6.9279C1.68813 7.07016 1.71414 7.21218 1.77143 7.34242L1.76368 7.34718L3.53241 10.4345L0.365143 12.2773L0.368852 12.2838C0.254801 12.3678 0.161977 12.4776 0.097896 12.6045C0.0338148 12.7313 0.000277593 12.8716 0 13.0139C0 13.3146 0.146664 13.5793 0.369863 13.7447L0.365143 13.7529L3.50881 15.5818L1.69928 18.7401L1.70535 18.7435C1.64819 18.8737 1.62228 19.0156 1.62972 19.1578C1.63716 19.2999 1.67774 19.4383 1.74817 19.5617C1.81912 19.6849 1.91792 19.7896 2.03655 19.8672C2.15518 19.9447 2.29029 19.993 2.43091 20.0081V20.0173H6.0611V23.6649H6.06852C6.09954 23.9421 6.25362 24.2017 6.51155 24.3519C6.63421 24.423 6.7718 24.4639 6.91311 24.4713C7.05443 24.4786 7.19548 24.4523 7.32477 24.3943L7.32916 24.4021L10.5258 22.5423L12.2958 25.632L12.3022 25.6283C12.3856 25.7432 12.4946 25.8368 12.6205 25.9013C12.7464 25.9659 12.8856 25.9997 13.0268 26C13.3252 26 13.5878 25.8522 13.752 25.6276L13.7598 25.632L15.5592 22.4914L18.658 24.2941L18.6617 24.2876C18.7909 24.3452 18.9317 24.3713 19.0728 24.3638C19.2139 24.3564 19.3512 24.3155 19.4736 24.2445C19.596 24.1731 19.7 24.0735 19.777 23.954C19.8541 23.8344 19.902 23.6982 19.917 23.5565H19.9261V19.9303H23.5043V19.9232C23.6448 19.9079 23.7797 19.8596 23.8981 19.782C24.0166 19.7045 24.1152 19.5999 24.1861 19.4767C24.2565 19.3531 24.2971 19.2146 24.3045 19.0723C24.3118 18.93 24.2858 18.7879 24.2286 18.6576L24.2363 18.6532L22.4676 15.5658L25.6349 13.723L25.6311 13.7165C25.7452 13.6326 25.8381 13.5228 25.9022 13.3959C25.9663 13.269 25.9998 13.1288 26 12.9864Z" fill="#DC3545"/>
<path d="M8.48859 15.1508L6.18433 13.7087L5.15685 14.1544L7.10695 18.6497L8.3913 18.0925L7.49982 16.0375L9.80409 17.4796L10.8316 17.0339L8.88147 12.5386L7.59711 13.0958L8.48859 15.1508ZM12.0262 14.5165L13.5032 13.8757L13.0017 12.7198L11.5247 13.3606L11.313 12.8725L12.9506 12.1621L12.4435 10.9933L9.52164 12.2609L11.4717 16.7561L14.4257 15.4746L13.9131 14.293L12.2435 15.0174L12.0262 14.5165ZM17.1552 14.2905L16.8197 11.5824L18.568 13.6777L19.8331 13.1288L19.1545 8.08201L17.7417 8.6949L18.2042 11.4319L16.406 9.27436L15.4171 9.70338L15.764 12.4906L14.0813 10.2828L12.6685 10.8957L15.8902 14.8394L17.1552 14.2905Z" fill="white"/>
</svg>
