<svg width="26" height="26" viewBox="0 0 26 26" fill="none" xmlns="http://www.w3.org/2000/svg">
<path d="M4 12.8438V4.875C4 4.35417 4.18229 3.91146 4.54688 3.54688C4.91146 3.18229 5.35417 3 5.875 3H13.8438C14.3646 3 14.8073 3.18229 15.1719 3.54688L23.4531 11.8281C23.8177 12.1927 24 12.6354 24 13.1563C24 13.6771 23.8177 14.1198 23.4531 14.4844L15.4844 22.4531C15.1198 22.8177 14.6771 23 14.1563 23C13.6354 23 13.1927 22.8177 12.8281 22.4531L4.54688 14.1719C4.18229 13.8073 4 13.3646 4 12.8438ZM9.70313 6.04688C9.33854 5.68229 8.89583 5.5 8.375 5.5C7.85417 5.5 7.41146 5.68229 7.04688 6.04688C6.68229 6.41146 6.5 6.85417 6.5 7.375C6.5 7.89583 6.68229 8.33854 7.04688 8.70313C7.41146 9.06771 7.85417 9.25 8.375 9.25C8.89583 9.25 9.33854 9.06771 9.70313 8.70313C10.0677 8.33854 10.25 7.89583 10.25 7.375C10.25 6.85417 10.0677 6.41146 9.70313 6.04688Z" fill="#DC3545"/>
</svg>
