<svg fill="none" height="24" viewBox="0 0 24 24" width="24" xmlns="http://www.w3.org/2000/svg"><g stroke="#292d32" stroke-linecap="round" stroke-linejoin="round" stroke-width="1.5"><path d="m18.14 21.62c-.88.26-1.92.38-3.14.38h-6.00002c-1.22 0-2.25999-.12-3.13999-.38.22-2.6 2.88999-4.65 6.14001-4.65 3.25 0 5.92 2.05 6.14 4.65z"/><path d="m15 2h-6c-5 0-7 2-7 7v6c0 3.78 1.14 5.85 3.86 6.62.22-2.6 2.89-4.65 6.14-4.65s5.92 2.05 6.14 4.65c2.72-.77 3.86-2.84 3.86-6.62v-6c0-5-2-7-7-7zm-3 12.17c-1.98 0-3.58-1.61-3.58-3.59 0-1.97998 1.6-3.58 3.58-3.58s3.58 1.60002 3.58 3.58c0 1.98-1.6 3.59-3.58 3.59z"/><path d="m15.58 10.58c0 1.98-1.6 3.59-3.58 3.59s-3.57996-1.61-3.57996-3.59c0-1.97998 1.59996-3.58 3.57996-3.58s3.58 1.60002 3.58 3.58z"/></g></svg>